<svg width="22" height="22" viewBox="0 0 22 22" fill="none" xmlns="http://www.w3.org/2000/svg">
<path d="M20 3H17.75C17.6837 3 17.6201 2.97366 17.5732 2.92678C17.5263 2.87989 17.5 2.8163 17.5 2.75V1C17.5 0.734784 17.3946 0.48043 17.2071 0.292893C17.0196 0.105357 16.7652 0 16.5 0C16.2348 0 15.9804 0.105357 15.7929 0.292893C15.6054 0.48043 15.5 0.734784 15.5 1V5.75C15.5 5.94891 15.421 6.13968 15.2803 6.28033C15.1397 6.42098 14.9489 6.5 14.75 6.5C14.5511 6.5 14.3603 6.42098 14.2197 6.28033C14.079 6.13968 14 5.94891 14 5.75V3.5C14 3.36739 13.9473 3.24021 13.8536 3.14645C13.7598 3.05268 13.6326 3 13.5 3H7.25C7.18387 3 7.12043 2.9738 7.07358 2.92713C7.02672 2.88046 7.00027 2.81713 7 2.751V1C7 0.734784 6.89464 0.48043 6.70711 0.292893C6.51957 0.105357 6.26522 0 6 0C5.73478 0 5.48043 0.105357 5.29289 0.292893C5.10536 0.48043 5 0.734784 5 1V5.75C5 5.94891 4.92098 6.13968 4.78033 6.28033C4.63968 6.42098 4.44891 6.5 4.25 6.5C4.05109 6.5 3.86032 6.42098 3.71967 6.28033C3.57902 6.13968 3.5 5.94891 3.5 5.75V3.5C3.5 3.36739 3.44732 3.24021 3.35355 3.14645C3.25979 3.05268 2.63261 3 2.5 3H2C1.46957 3 0.960859 3.21071 0.585786 3.58579C0.210714 3.96086 0 4.46957 0 5V20C0 20.5304 0.210714 21.0391 0.585786 21.4142C0.960859 21.7893 1.46957 22 2 22H20C20.5304 22 21.0391 21.7893 21.4142 21.4142C21.7893 21.0391 22 20.5304 22 20V5C22 4.46957 21.7893 3.96086 21.4142 3.58579C21.0391 3.21071 20.5304 3 20 3ZM20 19.5C20 19.6326 19.9473 19.7598 19.8536 19.8536C19.7598 19.9473 19.6326 20 19.5 20H2.5C2.36739 20 2.24021 19.9473 2.14645 19.8536C2.05268 19.7598 2 19.6326 2 19.5V9.5C2 9.36739 2.05268 9.24021 2.14645 9.14645C2.24021 9.05268 2.36739 9 2.5 9H19.5C19.6326 9 19.7598 9.05268 19.8536 9.14645C19.9473 9.24021 20 9.36739 20 9.5V19.5Z" fill="#6B5844"/>
</svg>
