<svg width="80" height="80" viewBox="0 0 80 80" fill="none" xmlns="http://www.w3.org/2000/svg">
<path opacity="0.25" fill-rule="evenodd" clip-rule="evenodd" d="M40 77.3333C70 77.3333 76 59.9999 76 39.9999C76 23.6666 61.3333 5.33325 40 5.33325C26.7452 5.33325 12 15.9999 12 39.9999C12 57.6666 23.6667 77.3333 40 77.3333ZM40 64C53.2548 64 64 53.2548 64 40C64 26.7452 53.2548 16 40 16C26.7452 16 16 26.7452 16 40C16 53.2548 26.7452 64 40 64Z" fill="#D16E54"/>
<path opacity="0.4" fill-rule="evenodd" clip-rule="evenodd" d="M40.0001 66.6667C49.6667 66.6667 65.3334 60.0001 65.3334 40.0001C65.3334 31.0001 61.3334 10.6667 40.0001 10.6667C26.7452 10.6667 14.6667 16.0001 14.6667 40.0001C14.6667 57.6667 23.6667 66.6667 40.0001 66.6667ZM40.0002 64C53.2551 64 64.0002 53.2548 64.0002 40C64.0002 26.7452 53.2551 16 40.0002 16C26.7454 16 16.0002 26.7452 16.0002 40C16.0002 53.2548 26.7454 64 40.0002 64Z" fill="#D16E54"/>
<path opacity="0.4" fill-rule="evenodd" clip-rule="evenodd" d="M40 70.6668C53.3333 70.6668 70.6667 60.0001 70.6667 40.0001C70.6667 19.3335 61.3333 15.3335 40 15.3335C38.6677 15.3335 37.2798 15.2964 35.8612 15.2586C23.1661 14.9197 8 14.5148 8 40.0001C8 53.3335 23.6667 70.6668 40 70.6668ZM40 64C53.2548 64 64 53.2548 64 40C64 26.7452 53.2548 16 40 16C26.7452 16 16 26.7452 16 40C16 53.2548 26.7452 64 40 64Z" fill="#D16E54"/>
<path opacity="0.8" fill-rule="evenodd" clip-rule="evenodd" d="M39.9999 68.6666C53.3332 68.6666 64.6666 59.9999 64.6666 39.9999C64.6666 24.9999 61.3332 15.3333 39.9999 15.3333C26.7451 15.3333 15.3333 18.3333 15.3333 39.9999C15.3333 53.3332 23.6666 68.6666 39.9999 68.6666ZM39.9998 64C53.2546 64 63.9998 53.2548 63.9998 40C63.9998 26.7452 53.2546 16 39.9998 16C26.7449 16 15.9998 26.7452 15.9998 40C15.9998 53.2548 26.7449 64 39.9998 64Z" fill="#D16E54"/>
<g filter="url(#filter0_i)">
<circle cx="40" cy="40" r="24" fill="white" fill-opacity="0.01"/>
</g>
<path d="M34 41L39 46L46 34" stroke="#D16E54" stroke-width="3" stroke-linecap="round" stroke-linejoin="round"/>
<defs>
<filter id="filter0_i" x="16" y="16" width="48" height="49.3333" filterUnits="userSpaceOnUse" color-interpolation-filters="sRGB">
<feFlood flood-opacity="0" result="BackgroundImageFix"/>
<feBlend mode="normal" in="SourceGraphic" in2="BackgroundImageFix" result="shape"/>
<feColorMatrix in="SourceAlpha" type="matrix" values="0 0 0 0 0 0 0 0 0 0 0 0 0 0 0 0 0 0 127 0" result="hardAlpha"/>
<feOffset dy="1.33333"/>
<feGaussianBlur stdDeviation="1.33333"/>
<feComposite in2="hardAlpha" operator="arithmetic" k2="-1" k3="1"/>
<feColorMatrix type="matrix" values="0 0 0 0 0.341667 0 0 0 0 0.0872222 0 0 0 0 0.0156597 0 0 0 0.18 0"/>
<feBlend mode="normal" in2="shape" result="effect1_innerShadow"/>
</filter>
</defs>
</svg>
