<svg width="24" height="24" viewBox="0 0 24 24" fill="none" xmlns="http://www.w3.org/2000/svg">
<g clip-path="url(#clip0_1115:16464)">
<path fill-rule="evenodd" clip-rule="evenodd" d="M23.52 12.2729C23.52 11.422 23.4436 10.6038 23.3018 9.81836H12V14.4602H18.4582C18.18 15.9602 17.3345 17.2311 16.0636 18.082V21.0929H19.9418C22.2109 19.0038 23.52 15.9274 23.52 12.2729Z" fill="#4285F4"/>
<path fill-rule="evenodd" clip-rule="evenodd" d="M12.0004 24.0003C15.2404 24.0003 17.9567 22.9257 19.9422 21.093L16.064 18.0821C14.9895 18.8021 13.6149 19.2275 12.0004 19.2275C8.87492 19.2275 6.22946 17.1166 5.28582 14.2803H1.27673V17.3894C3.25128 21.3112 7.30946 24.0003 12.0004 24.0003Z" fill="#34A853"/>
<path fill-rule="evenodd" clip-rule="evenodd" d="M5.28545 14.2799C5.04545 13.5599 4.90909 12.7908 4.90909 11.9999C4.90909 11.209 5.04545 10.4399 5.28545 9.71993V6.61084H1.27636C0.463636 8.23084 0 10.0636 0 11.9999C0 13.9363 0.463636 15.769 1.27636 17.389L5.28545 14.2799Z" fill="#FBBC05"/>
<path fill-rule="evenodd" clip-rule="evenodd" d="M12.0004 4.77273C13.7622 4.77273 15.344 5.37818 16.5876 6.56727L20.0295 3.12545C17.9513 1.18909 15.2349 0 12.0004 0C7.30946 0 3.25128 2.68909 1.27673 6.61091L5.28582 9.72C6.22946 6.88364 8.87492 4.77273 12.0004 4.77273Z" fill="#EA4335"/>
</g>
<defs>
<clipPath id="clip0_1115:16464">
<rect width="24" height="24" fill="white"/>
</clipPath>
</defs>
</svg>
