<svg width="24" height="24" viewBox="0 0 24 24" fill="none" xmlns="http://www.w3.org/2000/svg">
<path d="M21 3H18.75C18.6837 3 18.6201 2.97366 18.5732 2.92678C18.5263 2.87989 18.5 2.8163 18.5 2.75V1C18.5 0.734784 18.3946 0.48043 18.2071 0.292893C18.0196 0.105357 17.7652 0 17.5 0C17.2348 0 16.9804 0.105357 16.7929 0.292893C16.6054 0.48043 16.5 0.734784 16.5 1V5.75C16.5 5.94891 16.421 6.13968 16.2803 6.28033C16.1397 6.42098 15.9489 6.5 15.75 6.5C15.5511 6.5 15.3603 6.42098 15.2197 6.28033C15.079 6.13968 15 5.94891 15 5.75V3.5C15 3.36739 14.9473 3.24021 14.8536 3.14645C14.7598 3.05268 14.6326 3 14.5 3H8.25C8.18387 3 8.12043 2.9738 8.07358 2.92713C8.02672 2.88046 8.00027 2.81713 8 2.751V1C8 0.734784 7.89464 0.48043 7.70711 0.292893C7.51957 0.105357 7.26522 0 7 0C6.73478 0 6.48043 0.105357 6.29289 0.292893C6.10536 0.48043 6 0.734784 6 1V5.75C6 5.94891 5.92098 6.13968 5.78033 6.28033C5.63968 6.42098 5.44891 6.5 5.25 6.5C5.05109 6.5 4.86032 6.42098 4.71967 6.28033C4.57902 6.13968 4.5 5.94891 4.5 5.75V3.5C4.5 3.36739 4.44732 3.24021 4.35355 3.14645C4.25979 3.05268 3.63261 3 3.5 3H3C2.46957 3 1.96086 3.21071 1.58579 3.58579C1.21071 3.96086 1 4.46957 1 5V20C1 20.5304 1.21071 21.0391 1.58579 21.4142C1.96086 21.7893 2.46957 22 3 22H21C21.5304 22 22.0391 21.7893 22.4142 21.4142C22.7893 21.0391 23 20.5304 23 20V5C23 4.46957 22.7893 3.96086 22.4142 3.58579C22.0391 3.21071 21.5304 3 21 3ZM21 19.5C21 19.6326 20.9473 19.7598 20.8536 19.8536C20.7598 19.9473 20.6326 20 20.5 20H3.5C3.36739 20 3.24021 19.9473 3.14645 19.8536C3.05268 19.7598 3 19.6326 3 19.5V9.5C3 9.36739 3.05268 9.24021 3.14645 9.14645C3.24021 9.05268 3.36739 9 3.5 9H20.5C20.6326 9 20.7598 9.05268 20.8536 9.14645C20.9473 9.24021 21 9.36739 21 9.5V19.5Z" fill="#6B5844"/>
<rect x="5.5" y="8" width="1" height="13" fill="#6B5844"/>
<rect x="9.5" y="8" width="1" height="13" fill="#6B5844"/>
<rect x="13.5" y="8" width="1" height="13" fill="#6B5844"/>
<rect x="17.5" y="8" width="1" height="13" fill="#6B5844"/>
</svg>
